<svg width="26" height="24" viewBox="0 0 26 24" fill="none" xmlns="http://www.w3.org/2000/svg">
<path d="M18.3008 1.375H7.67578C6.01818 1.375 4.42847 2.03348 3.25636 3.20558C2.08426 4.37769 1.42578 5.9674 1.42578 7.625V16.375C1.42578 17.1958 1.58744 18.0085 1.90153 18.7668C2.21563 19.5251 2.676 20.2141 3.25636 20.7944C4.42847 21.9665 6.01818 22.625 7.67578 22.625H18.3008C19.1215 22.625 19.9343 22.4633 20.6926 22.1492C21.4508 21.8352 22.1398 21.3748 22.7202 20.7944C23.3006 20.2141 23.7609 19.5251 24.075 18.7668C24.3891 18.0085 24.5508 17.1958 24.5508 16.375V7.625C24.5508 6.80424 24.3891 5.99151 24.075 5.23323C23.7609 4.47494 23.3006 3.78595 22.7202 3.20558C22.1398 2.62522 21.4508 2.16484 20.6926 1.85075C19.9343 1.53666 19.1215 1.375 18.3008 1.375Z" stroke="#E99E21" stroke-width="1.5" stroke-linecap="round" stroke-linejoin="round"/>
<path d="M1.73828 18.25L5.17578 14.25C5.62558 13.8033 6.21592 13.5257 6.84688 13.4642C7.47784 13.4026 8.11068 13.561 8.63828 13.9125C9.16589 14.264 9.79872 14.4224 10.4297 14.3608C11.0606 14.2993 11.651 14.0217 12.1008 13.575L15.0133 10.6625C15.8501 9.82279 16.9582 9.30776 18.1396 9.20931C19.321 9.11085 20.499 9.43539 21.4633 10.125L24.5758 12.5375M7.98828 9.7125C8.26077 9.7125 8.5306 9.65883 8.78235 9.55455C9.0341 9.45027 9.26285 9.29743 9.45553 9.10475C9.64821 8.91206 9.80105 8.68332 9.90533 8.43157C10.0096 8.17982 10.0633 7.90999 10.0633 7.6375C10.0633 7.36501 10.0096 7.09518 9.90533 6.84343C9.80105 6.59168 9.64821 6.36293 9.45553 6.17025C9.26285 5.97757 9.0341 5.82473 8.78235 5.72045C8.5306 5.61617 8.26077 5.5625 7.98828 5.5625C7.43796 5.5625 6.91017 5.78112 6.52103 6.17025C6.1319 6.55939 5.91328 7.08718 5.91328 7.6375C5.91328 8.18782 6.1319 8.71561 6.52103 9.10475C6.91017 9.49388 7.43796 9.7125 7.98828 9.7125Z" stroke="#E99E21" stroke-width="1.5" stroke-linecap="round" stroke-linejoin="round"/>
</svg>
